# xmcd CD database file
#
# Track frame offsets:
#	150
#	7657
#	26856
#	44040
#	56741
#	70820
#	84119
#	100717
#	111165
#	125276
#	136235
#	146081
#
# Disc length: 2105 seconds
#
# Revision: 2
# Processed by: cddbd v1.5.1PL0 Copyright (c) Steve Scherf et al.
# Submitted via: CDex 1.51
#
DISCID=9d08370c
DTITLE=Trem 27 - Bluegrass 4 Breakfast
DYEAR=2002
DGENRE=Bluegrass
TTITLE0=Dueling Banjos
TTITLE1=Man of Constant Sorrow
TTITLE2=In the Pines
TTITLE3=Little Maggie
TTITLE4=Nashville Blues
TTITLE5=Backtrackin'
TTITLE6=Down Yonder
TTITLE7=Salty Dog
TTITLE8=Danny Boy
TTITLE9=Foggy Mountain Breakdown
TTITLE10=Orange Blossom Special
TTITLE11=Worried Man Blues
EXTD=YEAR: 2002
EXTT0=
EXTT1=
EXTT2=
EXTT3=
EXTT4=
EXTT5=
EXTT6=
EXTT7=
EXTT8=
EXTT9=
EXTT10=
EXTT11=
PLAYORDER=
